<?xml version="1.0" encoding="utf-8"?>
<!-- Generator: Adobe Illustrator 27.5.0, SVG Export Plug-In . SVG Version: 6.00 Build 0)  -->
<svg version="1.1" xmlns="http://www.w3.org/2000/svg" xmlns:xlink="http://www.w3.org/1999/xlink" x="0px" y="0px"
	 viewBox="0 0 2475 1650" style="enable-background:new 0 0 2475 1650;" xml:space="preserve">
<g id="Background">
	<rect style="fill:#FFFFFF;" width="2475" height="1650"/>
</g>
<g id="Illustration">
	<linearGradient id="SVGID_1_" gradientUnits="userSpaceOnUse" x1="234.2535" y1="835.5939" x2="2354" y2="835.5939">
		<stop  offset="0" style="stop-color:#DAE3FE"/>
		<stop  offset="1" style="stop-color:#E9EFFD"/>
	</linearGradient>
	<path style="fill:url(#SVGID_1_);" d="M2294.021,906.841c-36.752-40.291-80.212-79.587-91.546-134.291
		c-19.612-94.662,64.248-175.377,91.701-267.83c18.982-63.927,9.189-136.713-25.899-192.491
		c-35.088-55.778-94.758-93.416-157.807-99.538c-108.482-10.535-214.647,66.833-321.508,44.427
		c-85.564-17.941-153.18-97.084-240.038-105.563c-102.208-9.976-187.011,79.323-284.613,112.945
		c-116.744,40.215-243.316-1.813-358.094-47.933c-114.778-46.12-235.539-97.577-356.526-75.504
		c-134.673,24.57-247.588,148.773-265.6,292.15c-17.851,142.093,131.861,256.156,4.42,426.77
		c-39.826,53.317-66.315,127.551-48.71,192.913c17.106,63.508,89.9,103.675,90.429,169.711
		c0.418,52.131-46.023,93.61-49.764,145.593c-3.211,44.618,27.108,85.868,64.369,107.014c37.26,21.146,80.492,26.317,122.527,31.11
		l-12.391,14.098c211.729,20.115,424.776,15.638,637.313,11.143c335.174-7.089,670.347-14.177,1005.521-21.265
		c34.447-0.729,69.731-1.625,101.828-14.883c32.096-13.258,60.884-41.636,65.772-77.733c8.32-61.432-52.349-114.745-46.742-176.52
		c7.159-78.882,112.108-109.315,132.078-185.69C2364.853,1001.498,2330.773,947.132,2294.021,906.841z"/>
	<g>
		<path style="fill:#BDD0FB;" d="M1965.723,160.68c30.884,92.442,188.642,637.738-296.464,877.69
			c0,0-196.271-332.253,282.441-880.524C1955.887,153.049,1963.705,154.64,1965.723,160.68z"/>
		
			<linearGradient id="SVGID_00000034065088744641324370000012755627993291689407_" gradientUnits="userSpaceOnUse" x1="1773.6343" y1="618.3218" x2="1935.6455" y2="618.3218">
			<stop  offset="0" style="stop-color:#DAE3FE"/>
			<stop  offset="1" style="stop-color:#E9EFFD"/>
		</linearGradient>
		<path style="fill:url(#SVGID_00000034065088744641324370000012755627993291689407_);" d="M1935.64,253.767
			c-2.423,31.072-5.485,62.048-8.814,93.012c-3.344,30.959-7.045,61.879-11.108,92.754c-8.123,61.749-17.627,123.33-29.024,184.589
			c-11.443,61.242-24.674,122.205-41.225,182.357c-8.179,30.098-17.453,59.921-27.865,89.371
			c-10.453,29.429-22.088,58.512-36.025,86.61c-1.028,2.073-3.543,2.92-5.616,1.892c-2.073-1.028-2.92-3.543-1.892-5.616
			l0.012-0.024l0.008-0.017c13.911-27.595,25.63-56.33,36.191-85.469c10.522-29.163,19.94-58.761,28.276-88.675
			c16.866-59.78,30.46-120.5,42.274-181.54c11.77-61.059,21.658-122.492,30.17-184.113c4.257-30.811,8.154-61.674,11.694-92.578
			c3.526-30.901,6.786-61.855,9.403-92.824l0.001-0.016c0.083-0.977,0.941-1.702,1.918-1.619
			C1934.993,251.943,1935.716,252.795,1935.64,253.767z"/>
	</g>
	<g>
		<path style="fill:#BDD0FB;" d="M2251.207,264.7c-0.162-9.632-13.158-12.652-17.513-4.059
			c-42.101,83.079-159.32,297.469-294.047,396.873c-219.368,161.853-402.846,458.882-320.293,647.894
			C1619.354,1305.408,2268.818,1314.209,2251.207,264.7z"/>
		
			<linearGradient id="SVGID_00000158009712389480667530000013573292668392905389_" gradientUnits="userSpaceOnUse" x1="1680.0558" y1="799.0219" x2="2208.4634" y2="799.0219">
			<stop  offset="0" style="stop-color:#DAE3FE"/>
			<stop  offset="1" style="stop-color:#E9EFFD"/>
		</linearGradient>
		<path style="fill:url(#SVGID_00000158009712389480667530000013573292668392905389_);" d="M2208.423,386.675
			c-0.78,2.699-1.684,5.014-2.535,7.476l-2.679,7.249l-5.516,14.428c-3.731,9.596-7.563,19.15-11.422,28.694
			c-7.772,19.065-15.781,38.032-23.964,56.925c-16.422,37.763-33.827,75.093-51.809,112.141
			c-17.949,37.068-36.862,73.669-56.519,109.865l-7.348,13.587l-7.527,13.49c-5.056,8.971-9.948,18.036-15.155,26.922
			l-15.437,26.764l-15.839,26.531c-42.607,70.518-88.934,138.874-139.932,203.657c-3.131,4.092-6.392,8.082-9.683,12.048
			l-9.818,11.94l-9.818,11.938c-3.322,3.938-6.749,7.789-10.117,11.688c-6.807,7.737-13.434,15.632-20.388,23.237l-20.994,22.695
			c-28.556,29.723-58.422,58.209-90.151,84.507c-0.445,0.369-1.106,0.307-1.475-0.138c-0.363-0.438-0.309-1.085,0.117-1.457
			l0.01-0.009c30.987-27.021,60.381-55.773,88.336-85.869l20.682-22.832c6.849-7.649,13.373-15.589,20.075-23.368
			c3.316-3.92,6.69-7.79,9.958-11.75l9.66-12l9.659-11.999c3.237-3.985,6.445-7.994,9.523-12.106l18.747-24.448
			c6.198-8.188,12.172-16.546,18.269-24.809c3.021-4.153,6.097-8.264,9.072-12.45l8.83-12.626l8.83-12.625
			c2.959-4.197,5.889-8.415,8.716-12.704c23.177-33.931,44.996-68.767,66.474-103.798c42.689-70.247,81.76-142.661,118.519-216.206
			c18.319-36.807,35.917-73.977,52.814-111.465c8.472-18.734,16.771-37.547,24.837-56.46c4.004-9.468,7.984-18.947,11.861-28.467
			l5.734-14.31l2.786-7.181c0.877-2.382,1.849-4.861,2.556-7.088l0.07-0.22c0.174-0.547,0.758-0.85,1.305-0.676
			C2208.277,385.566,2208.578,386.136,2208.423,386.675z"/>
	</g>
	<g>
		<path style="fill:#91B3FA;" d="M1676.018,1517.209c0,0,6.307-133.37,144.228-264.905
			c127.966-122.043,442.036-403.905,516.886-562.581c3.315-7.029,13.816-4.649,13.691,3.122
			c-1.343,83.358-21.116,291.866-170.585,495.73C1987.489,1451.47,1676.018,1517.209,1676.018,1517.209z"/>
		<path style="fill:#BDD0FB;" d="M2284.592,837.63c-2.84,18.227-7.946,36.041-14.007,53.456c-0.746,2.183-1.45,4.383-2.231,6.554
			l-2.472,6.464l-4.955,12.933l-5.49,12.714c-1.868,4.221-3.564,8.529-5.692,12.629c-15.892,33.34-34.516,65.435-55.837,95.641
			c-5.023,7.775-10.838,14.97-16.371,22.374c-5.651,7.312-10.978,14.892-17.073,21.846l-17.809,21.26
			c-2.891,3.614-6.149,6.898-9.274,10.303l-9.447,10.148l-9.448,10.148l-4.74,5.059l-4.966,4.835l-19.867,19.339
			c-3.334,3.195-6.573,6.511-9.986,9.605l-10.224,9.299l-20.448,18.598L2023.6,1219.2c-6.904,6.1-13.75,12.268-20.741,18.267
			c-13.9,12.095-27.875,24.103-41.978,35.954c-14.029,11.942-28.245,23.653-42.399,35.437l-42.817,34.894
			c-28.561,23.223-57.151,46.389-84.916,70.442c-7.029,5.923-13.742,12.173-20.568,18.313c-3.452,3.032-6.684,6.28-9.993,9.455
			c-3.274,3.208-6.642,6.332-9.842,9.61c-6.256,6.686-12.776,13.16-18.55,20.27l-4.468,5.221c-0.732,0.88-1.518,1.72-2.207,2.633
			l-2.048,2.753l-8.202,11.025l-0.033,0.044c-0.346,0.465-1.003,0.561-1.467,0.215c-0.447-0.333-0.552-0.956-0.251-1.417
			c10.158-15.471,21.946-29.8,34.561-43.307c3.148-3.382,6.456-6.602,9.677-9.912c3.254-3.276,6.439-6.631,9.831-9.756
			c6.709-6.332,13.322-12.787,20.228-18.895c27.365-24.752,55.803-48.183,84-71.846c28.233-23.626,56.464-47.213,84.428-71.105
			c27.991-23.861,55.598-48.154,83.007-72.666l20.39-18.569l10.195-9.284c3.403-3.091,6.628-6.332,9.951-9.491l19.803-19.07
			l4.952-4.768l4.723-4.99l9.418-10.009c25.464-26.374,48.652-54.859,70.3-84.411c21.779-29.488,40.927-60.916,57.416-93.677
			c2.201-4.03,3.959-8.268,5.978-12.387l5.881-12.445l5.354-12.679l2.676-6.345c0.849-2.131,1.621-4.292,2.436-6.437
			c1.578-4.308,3.291-8.575,4.76-12.924l4.303-13.087c2.588-8.804,5.264-17.624,6.946-26.665c0.01-0.071,0.075-0.121,0.146-0.111
			C2284.55,837.491,2284.599,837.56,2284.592,837.63z"/>
	</g>
	<g>
		<path style="fill:#91B3FA;" d="M642.6,1099.124c0,0-133.688-564.479-410.754-872.448c-18.625-20.702-52.754-12.727-60.109,14.132
			C122.556,420.404,28.175,965.17,642.6,1099.124z"/>
		<path style="fill:#BDD0FB;" d="M586.367,1062.723c1.378,1.347-0.447,3.477-1.992,2.327
			c-57.007-42.401-277.403-250.737-358.757-665.9c-0.261-1.334,1.7-1.842,2.075-0.535
			C255.361,494.851,368.476,849.709,586.367,1062.723z"/>
	</g>
	<g>
		<path style="fill:#BDD0FB;" d="M709.285,836.311c0,0,53.291-406.21-52.406-679.019c-7.105-18.339-31.638-21.632-43.229-5.744
			C536.141,257.789,337.217,593.79,709.285,836.311z"/>
		
			<linearGradient id="SVGID_00000050653547384476765100000015316424356036476083_" gradientUnits="userSpaceOnUse" x1="594.8236" y1="534.3481" x2="681.4005" y2="534.3481">
			<stop  offset="0" style="stop-color:#DAE3FE"/>
			<stop  offset="1" style="stop-color:#E9EFFD"/>
		</linearGradient>
		<path style="fill:url(#SVGID_00000050653547384476765100000015316424356036476083_);" d="M681.287,798.176
			c0.572,1.235-1.167,2.184-1.899,1.037c-27.004-42.29-120.271-235.108-69.872-529.611c0.162-0.946,1.584-0.79,1.504,0.167
			C605.154,340.245,590.847,602.897,681.287,798.176z"/>
	</g>
	<g>
		<path style="fill:#BDD0FB;" d="M123.092,927.777c-2.664-1.645-1.281-5.755,1.833-5.418
			c49.693,5.379,230.329,35.998,365.874,202.762c124.017,152.582,186.03,279.947,207.186,328.257
			c4.183,9.553-3.46,20.082-13.838,19.049c-61.509-6.124-232.842-32.286-304.509-136.861
			C293.995,1210.599,250.244,1006.294,123.092,927.777z"/>
		
			<linearGradient id="SVGID_00000054962153759601846470000005726923519943865217_" gradientUnits="userSpaceOnUse" x1="269.0253" y1="1234.483" x2="685.0429" y2="1234.483">
			<stop  offset="0" style="stop-color:#DAE3FE"/>
			<stop  offset="1" style="stop-color:#E9EFFD"/>
		</linearGradient>
		<path style="fill:url(#SVGID_00000054962153759601846470000005726923519943865217_);" d="M269.025,1014.073
			c0,0,161.773,61.048,416.018,440.82C685.043,1454.893,409.313,1086.763,269.025,1014.073z"/>
	</g>
	<g>
		<g>
			
				<linearGradient id="SVGID_00000127738686573512445710000000740434141978628247_" gradientUnits="userSpaceOnUse" x1="1113.389" y1="1425.5955" x2="1463.4913" y2="375.2858">
				<stop  offset="0" style="stop-color:#09005D"/>
				<stop  offset="1" style="stop-color:#1A0F91"/>
			</linearGradient>
			<path style="fill:url(#SVGID_00000127738686573512445710000000740434141978628247_);" d="M2017.382,1463.698
				c0,15.062-12.336,27.386-27.413,27.386H507.605c-15.077,0-27.413-12.324-27.413-27.386l-12.335-851.874
				c0-15.062,17.746-44.468,50.269-42.258l1448.73-37.486c18.917-0.49,37.208,6.792,50.604,20.144
				c13.396,13.353,20.726,31.609,20.279,50.508L2017.382,1463.698z"/>
			
				<linearGradient id="SVGID_00000038390863520422483250000012821331742308451987_" gradientUnits="userSpaceOnUse" x1="911.9813" y1="1289.1301" x2="2115.1013" y2="404.0406">
				<stop  offset="0" style="stop-color:#4042E2"/>
				<stop  offset="1" style="stop-color:#4F52FF"/>
			</linearGradient>
			<path style="fill:url(#SVGID_00000038390863520422483250000012821331742308451987_);" d="M1990.318,1437.424
				c0,14.264-11.67,25.934-25.934,25.934H543.353c-14.264,0-25.934-11.67-25.934-25.934l-11.64-773.339
				c1.371-46.538,42.172-63.264,66.904-62.276l1388.475-37.251c13.29-0.357,26.14,4.764,35.553,14.153
				c9.413,9.389,14.59,22.238,14.256,35.529L1990.318,1437.424z"/>
			<g>
				<path style="fill:#91B3FA;" d="M532.775,1068.327c-1.143,0-2.077-0.918-2.094-2.064l-0.921-62.717
					c-0.016-1.157,0.907-2.108,2.064-2.126c0.01,0,0.021,0,0.032,0c1.143,0,2.077,0.918,2.094,2.064l0.921,62.717
					c0.016,1.157-0.907,2.108-2.064,2.126C532.797,1068.327,532.786,1068.327,532.775,1068.327z"/>
				<path style="fill:#91B3FA;" d="M530.518,914.638c-1.143,0-2.077-0.918-2.094-2.064l-3.527-240.204
					c0.073-16.042,5.015-28.856,14.69-38.127c17.6-16.865,45.146-16.023,46.309-15.972l443.402-11.899
					c1.163-0.012,2.12,0.881,2.15,2.038c0.032,1.157-0.881,2.12-2.038,2.15l-443.523,11.899c-1.242-0.041-27.068-0.842-43.401,14.81
					c-8.824,8.454-13.331,20.257-13.398,35.079l3.527,240.164c0.016,1.157-0.907,2.108-2.065,2.126
					C530.54,914.638,530.529,914.638,530.518,914.638z"/>
			</g>
			<g style="opacity:0.22;">
				<path style="fill:#91B3FA;" d="M580.024,1394.523c1.488-63.917,0.934-629.922-2.734-678.804
					c-3.667-48.883,72.464-58.052,189.349-63.553c116.885-5.501,1103.089-27.281,1128.482-29.34
					c57.077-4.628,68.891,80.685,63.181,265.892c-4.29,139.144-11.4,368.361-14.672,473.771
					c-0.974,31.387-26.628,56.29-58.03,56.376c-237.321,0.652-1146.904,3.259-1207.455,5.062
					C608.464,1426.002,579.434,1419.867,580.024,1394.523z"/>
			</g>
		</g>
		
			<linearGradient id="SVGID_00000044895142341431644180000016246022739901310870_" gradientUnits="userSpaceOnUse" x1="1268.7604" y1="1111.2516" x2="1265.7601" y2="1345.274">
			<stop  offset="0" style="stop-color:#09005D"/>
			<stop  offset="1" style="stop-color:#1A0F91"/>
		</linearGradient>
		<path style="fill:url(#SVGID_00000044895142341431644180000016246022739901310870_);" d="M2130.132,1534.563H397.494
			c-4.128,0-7.505-3.377-7.505-7.505v-59.839c0-4.128,3.377-7.505,7.505-7.505h1732.638c4.128,0,7.505,3.377,7.505,7.505v59.839
			C2137.637,1531.186,2134.26,1534.563,2130.132,1534.563z"/>
	</g>
	<g>
		<path style="fill:#91B3FA;" d="M1964.341,313.315l-341.303-1.901c-13.972-0.078-22.651,15.158-15.459,27.137l1.714,2.854
			c3.238,5.394,9.068,8.694,15.359,8.694h339.59c9.894,0,17.915-8.021,17.915-17.915v-0.953
			C1982.156,321.374,1974.196,313.369,1964.341,313.315z"/>
		<path style="fill:#91B3FA;" d="M2012.017,331.627v0.555c0,9.894,8.021,17.915,17.915,17.915h75.766
			c8.113,0,15.214-5.452,17.308-13.291l0,0c3.025-11.323-5.457-22.453-17.177-22.539l-75.766-0.555
			C2020.118,313.64,2012.017,321.682,2012.017,331.627z"/>
	</g>
	<g>
		<path style="fill:#91B3FA;" d="M1882.24,377.624l-259.203-1.901c-13.972-0.078-22.651,15.157-15.459,27.137l1.714,2.854
			c3.238,5.394,9.068,8.694,15.359,8.694h257.49c9.894,0,17.915-8.021,17.915-17.915v-0.953
			C1900.056,385.684,1892.096,377.679,1882.24,377.624z"/>
		<path style="fill:#91B3FA;" d="M1929.917,395.937v0.555c0,9.894,8.021,17.915,17.915,17.915h75.765
			c8.113,0,15.214-5.452,17.308-13.291l0,0c3.025-11.323-5.457-22.453-17.177-22.539l-75.766-0.555
			C1938.018,377.949,1929.917,385.991,1929.917,395.937z"/>
	</g>
	
		<linearGradient id="SVGID_00000101790359258780953500000004829628197806493867_" gradientUnits="userSpaceOnUse" x1="1178.2875" y1="277.8192" x2="869.2567" y2="811.8722">
		<stop  offset="0" style="stop-color:#FE7062"/>
		<stop  offset="1" style="stop-color:#FF928E"/>
	</linearGradient>
	<path style="fill:url(#SVGID_00000101790359258780953500000004829628197806493867_);" d="M1453.328,321.67h-364.564
		c-17.274-67.565-78.55-117.518-151.497-117.518c-86.36,0-156.367,70.008-156.367,156.367c0,86.36,70.008,156.367,156.367,156.367
		c76.398,0,139.958-54.802,153.615-127.231h180.504v39.335c0,14.751,11.958,26.708,26.709,26.708h0.971
		c14.751,0,26.709-11.958,26.709-26.708v-39.335h67.986v60.702c0,14.751,11.958,26.709,26.709,26.709h0.971
		c14.751,0,26.709-11.958,26.709-26.709v-60.702h5.18c18.595,0,33.669-15.074,33.669-33.669v-0.647
		C1486.997,336.744,1471.923,321.67,1453.328,321.67z M937.267,456.994c-53.281,0-96.474-43.193-96.474-96.475
		c0-53.282,43.193-96.474,96.474-96.474c53.282,0,96.475,43.193,96.475,96.474C1033.742,413.801,990.549,456.994,937.267,456.994z"
		/>
	<g>
		<g>
			
				<linearGradient id="SVGID_00000152967545925203329080000008903080693320691117_" gradientUnits="userSpaceOnUse" x1="899.3539" y1="-191.1534" x2="881.3517" y2="321.896">
				<stop  offset="0" style="stop-color:#FF928E"/>
				<stop  offset="1" style="stop-color:#FEB3B1"/>
			</linearGradient>
			<path style="fill:url(#SVGID_00000152967545925203329080000008903080693320691117_);" d="M970.28,1118.043
				c-2.33,0.105-4.544-0.769-6.224-2.391c-1.679-1.622-2.604-3.802-2.604-6.137v-30.238c0-7.389-2.897-14.315-8.158-19.503
				c-5.132-5.06-11.852-7.804-19.078-7.863v-90.216c0-15.103-12.287-27.389-27.389-27.389h-88.891v18.856h88.891
				c4.705,0,8.533,3.828,8.533,8.533v90.454l-242.764,3.419c-2.279-0.013-4.472-0.839-6.11-2.456
				c-1.64-1.616-2.542-3.774-2.542-6.076V757.268h-18.856v289.769c0,7.389,2.897,14.315,8.159,19.503
				c5.262,5.188,12.192,8.019,19.616,7.883l261.082-3.677c2.27,0.025,4.472,0.84,6.11,2.456c1.64,1.616,2.542,3.774,2.542,6.076
				v30.238c0,7.495,2.969,14.49,8.358,19.698c5.157,4.981,11.871,7.692,19.001,7.692c0.324,0,0.649-0.006,0.974-0.016l102.938-3.55
				l-0.651-18.846L970.28,1118.043z"/>
			
				<linearGradient id="SVGID_00000183242893602822288420000013828242855824415142_" gradientUnits="userSpaceOnUse" x1="926.9068" y1="-190.1934" x2="908.9045" y2="322.8593">
				<stop  offset="0" style="stop-color:#FF928E"/>
				<stop  offset="1" style="stop-color:#FEB3B1"/>
			</linearGradient>
			<path style="fill:url(#SVGID_00000183242893602822288420000013828242855824415142_);" d="M835.428,1156.09
				c-14.844,0.255-26.921,12.539-26.921,27.385c0,4.705-3.828,8.533-8.533,8.533H694.323v18.856h105.652
				c15.103,0,27.389-12.286,27.389-27.389c0-4.625,3.763-8.452,8.387-8.531l227.477-3.889l-0.321-18.854L835.428,1156.09z"/>
			
				<linearGradient id="SVGID_00000137817615323731055360000011937469708654755215_" gradientUnits="userSpaceOnUse" x1="965.9459" y1="-188.8185" x2="947.9437" y2="324.2331">
				<stop  offset="0" style="stop-color:#FF928E"/>
				<stop  offset="1" style="stop-color:#FEB3B1"/>
			</linearGradient>
			<path style="fill:url(#SVGID_00000137817615323731055360000011937469708654755215_);" d="M967.738,1219.398v10.171
				c0,4.705-3.828,8.533-8.533,8.533H796.089c-15.103,0-27.389,12.286-27.389,27.389v36.73c0,7.508,2.977,14.511,8.384,19.722
				c5.155,4.968,11.858,7.668,18.974,7.668c0.348,0,0.697-0.007,1.045-0.019l94.511-3.501l-0.698-18.844l-94.511,3.501
				c-2.341,0.083-4.552-0.76-6.237-2.383c-1.684-1.624-2.612-3.806-2.612-6.144v-36.73c0-4.705,3.828-8.533,8.533-8.533h163.115
				c15.103,0,27.389-12.286,27.389-27.389v-10.171c0-4.705,3.828-8.533,8.533-8.533h67.939v-18.856h-67.939
				C980.024,1192.008,967.738,1204.295,967.738,1219.398z"/>
			
				<linearGradient id="SVGID_00000151510359303309748880000014372560034720989347_" gradientUnits="userSpaceOnUse" x1="975.1771" y1="-188.4926" x2="957.1749" y2="324.5581">
				<stop  offset="0" style="stop-color:#FF928E"/>
				<stop  offset="1" style="stop-color:#FEB3B1"/>
			</linearGradient>
			<path style="fill:url(#SVGID_00000151510359303309748880000014372560034720989347_);" d="M844.361,867.123
				c0.055,0,0.115,0,0.171,0c34.58-0.163,97.109-0.389,127.35-0.065c4.647,0.051,8.427,3.878,8.427,8.533v192.651
				c0,15.103,12.286,27.389,27.389,27.389h55.369v-18.856h-55.369c-4.705,0-8.533-3.828-8.533-8.533V875.592
				c0-14.94-12.147-27.227-27.079-27.387c-30.371-0.329-93.01-0.101-127.643,0.062c-0.028,0-0.054,0-0.081,0
				c-9.477,0-17.246-7.687-17.336-17.173c-0.138-14.508-0.248-34.752,0.008-48.803c0.082-4.464,3.498-8.06,7.945-8.367l105.123-7.25
				l-1.297-18.811l-105.123,7.25c-14.277,0.985-25.239,12.522-25.5,26.835c-0.261,14.267-0.15,34.698-0.012,49.326
				C808.359,851.077,824.576,867.125,844.361,867.123z"/>
			
				<linearGradient id="SVGID_00000132061636431526019450000007268272109232101304_" gradientUnits="userSpaceOnUse" x1="1588.1193" y1="-166.9869" x2="1570.1172" y2="346.0631">
				<stop  offset="0" style="stop-color:#FF928E"/>
				<stop  offset="1" style="stop-color:#FEB3B1"/>
			</linearGradient>
			<path style="fill:url(#SVGID_00000132061636431526019450000007268272109232101304_);" d="M1540.421,1086.842
				c13.928-1.513,24.431-13.218,24.431-27.229v-148.49c0-4.219,3.149-7.851,7.327-8.447l42.487-6.07
				c13.407-1.914,23.516-13.57,23.516-27.113V709.08h-18.856v160.414c0,4.219-3.149,7.851-7.327,8.447l-42.487,6.07
				c-13.406,1.914-23.516,13.57-23.516,27.113v148.49c0,4.364-3.272,8.011-7.611,8.483l-80.356,8.734l2.038,18.746
				L1540.421,1086.842z"/>
			
				<linearGradient id="SVGID_00000000903521644246684750000017113726126512375205_" gradientUnits="userSpaceOnUse" x1="1704.958" y1="-162.8893" x2="1686.9558" y2="350.1621">
				<stop  offset="0" style="stop-color:#FF928E"/>
				<stop  offset="1" style="stop-color:#FEB3B1"/>
			</linearGradient>
			<path style="fill:url(#SVGID_00000000903521644246684750000017113726126512375205_);" d="M1747.128,1175.922v-71.918
				c0-4.663,3.794-8.49,8.456-8.532l34.431-0.308c14.718-0.132,26.634-11.758,27.129-26.468l7.499-223.117l-18.846-0.634
				l-7.499,223.117c-0.153,4.583-3.866,8.205-8.451,8.246l-34.431,0.308c-14.967,0.136-27.144,12.421-27.144,27.388v71.669
				l-14.154-0.186c-7.333-0.103-14.343,2.706-19.599,7.893c-5.256,5.187-8.15,12.109-8.15,19.494v139.601
				c0,2.3-0.901,4.455-2.537,6.072c-1.637,1.618-3.808,2.466-6.105,2.461l-127.498-1.635c-4.645-0.059-8.424-3.887-8.424-8.532
				v-100.491c0-15.103-12.286-27.389-27.389-27.389h-55.369v18.856h55.369c4.705,0,8.533,3.828,8.533,8.533v100.491
				c0,14.911,12.129,27.196,27.038,27.386l127.498,1.635c0.121,0.002,0.24,0.003,0.36,0.003c7.248-0.001,14.067-2.798,19.234-7.9
				c5.253-5.186,8.146-12.107,8.146-19.489v-139.601c0-2.301,0.901-4.457,2.539-6.073c1.638-1.616,3.828-2.493,6.106-2.459
				l141.033,1.856l0.248-18.854L1747.128,1175.922z"/>
			
				<linearGradient id="SVGID_00000022557324054300592710000013898562484192469134_" gradientUnits="userSpaceOnUse" x1="1620.2212" y1="-165.8613" x2="1602.219" y2="347.1898">
				<stop  offset="0" style="stop-color:#FF928E"/>
				<stop  offset="1" style="stop-color:#FEB3B1"/>
			</linearGradient>
			<path style="fill:url(#SVGID_00000022557324054300592710000013898562484192469134_);" d="M1594.439,1157.123l1.841,134.533
				l18.854-0.258l-1.852-135.342l51.438-2.911c14.49-0.822,25.84-12.833,25.84-27.345v-79.403h-18.856v79.403
				c0,4.522-3.537,8.264-8.051,8.52l-205.138,11.611l1.066,18.826L1594.439,1157.123z"/>
		</g>
		<g>
			
				<linearGradient id="SVGID_00000147907013973547652550000012470947124706363060_" gradientUnits="userSpaceOnUse" x1="1851.2681" y1="-157.7542" x2="1833.2659" y2="355.2973">
				<stop  offset="0" style="stop-color:#FF928E"/>
				<stop  offset="1" style="stop-color:#FEB3B1"/>
			</linearGradient>
			<path style="fill:url(#SVGID_00000147907013973547652550000012470947124706363060_);" d="M1833.933,786.954l-42.681,8.173
				c-9.192,1.76-15.839,9.801-15.839,19.16v51.277c0,10.774,8.734,19.508,19.508,19.508h42.681c10.774,0,19.508-8.734,19.508-19.508
				v-59.45C1857.109,793.868,1845.959,784.651,1833.933,786.954z"/>
			
				<linearGradient id="SVGID_00000052105692594659809310000012750879884101418659_" gradientUnits="userSpaceOnUse" x1="1660.5514" y1="-164.4459" x2="1642.5492" y2="348.6055">
				<stop  offset="0" style="stop-color:#FF928E"/>
				<stop  offset="1" style="stop-color:#FEB3B1"/>
			</linearGradient>
			<path style="fill:url(#SVGID_00000052105692594659809310000012750879884101418659_);" d="M1647.465,659.151l-42.681,8.173
				c-9.192,1.76-15.839,9.801-15.839,19.16v51.277c0,10.774,8.734,19.508,19.508,19.508h42.681c10.774,0,19.508-8.734,19.508-19.508
				v-59.45C1670.642,666.065,1659.492,656.848,1647.465,659.151z"/>
			
				<linearGradient id="SVGID_00000142148908598780855550000016338233836608027786_" gradientUnits="userSpaceOnUse" x1="1909.5663" y1="-155.7084" x2="1891.5641" y2="357.3432">
				<stop  offset="0" style="stop-color:#FF928E"/>
				<stop  offset="1" style="stop-color:#FEB3B1"/>
			</linearGradient>
			<path style="fill:url(#SVGID_00000142148908598780855550000016338233836608027786_);" d="M1880.026,1136.842l-42.681,8.173
				c-9.192,1.76-15.839,9.801-15.839,19.16v51.277c0,10.774,8.734,19.508,19.508,19.508h42.681c10.774,0,19.508-8.734,19.508-19.508
				v-59.45C1903.202,1143.756,1892.052,1134.538,1880.026,1136.842z"/>
			
				<linearGradient id="SVGID_00000150789234802670299390000009988385017494906513_" gradientUnits="userSpaceOnUse" x1="687.1809" y1="-198.5994" x2="669.1787" y2="314.4522">
				<stop  offset="0" style="stop-color:#FF928E"/>
				<stop  offset="1" style="stop-color:#FEB3B1"/>
			</linearGradient>
			<path style="fill:url(#SVGID_00000150789234802670299390000009988385017494906513_);" d="M671.132,709.434l-42.681,8.173
				c-9.192,1.76-15.839,9.801-15.839,19.16v51.277c0,10.774,8.734,19.508,19.508,19.508h42.681c10.774,0,19.508-8.734,19.508-19.508
				v-59.45C694.309,716.348,683.159,707.131,671.132,709.434z"/>
			
				<linearGradient id="SVGID_00000147930571480800912810000004007499637785623741_" gradientUnits="userSpaceOnUse" x1="859.028" y1="-192.5713" x2="841.0258" y2="320.4803">
				<stop  offset="0" style="stop-color:#FF928E"/>
				<stop  offset="1" style="stop-color:#FEB3B1"/>
			</linearGradient>
			<path style="fill:url(#SVGID_00000147930571480800912810000004007499637785623741_);" d="M836.648,895.901l-42.681,8.173
				c-9.192,1.76-15.839,9.801-15.839,19.16v51.277c0,10.774,8.734,19.508,19.508,19.508h42.681c10.774,0,19.508-8.734,19.508-19.508
				v-59.45C859.825,902.815,848.675,893.598,836.648,895.901z"/>
			
				<linearGradient id="SVGID_00000114757077463935391270000006288248581649225106_" gradientUnits="userSpaceOnUse" x1="729.9504" y1="-197.1026" x2="711.9481" y2="315.949">
				<stop  offset="0" style="stop-color:#FF928E"/>
				<stop  offset="1" style="stop-color:#FEB3B1"/>
			</linearGradient>
			<path style="fill:url(#SVGID_00000114757077463935391270000006288248581649225106_);" d="M698.369,1153.603l-42.681,8.173
				c-9.192,1.76-15.839,9.801-15.839,19.16v51.277c0,10.774,8.734,19.508,19.508,19.508h42.681c10.774,0,19.508-8.734,19.508-19.508
				v-59.45C721.546,1160.517,710.396,1151.3,698.369,1153.603z"/>
			
				<linearGradient id="SVGID_00000162312789703636075000000017639901118601333892_" gradientUnits="userSpaceOnUse" x1="1657.9453" y1="-164.5356" x2="1639.9431" y2="348.5159">
				<stop  offset="0" style="stop-color:#FF928E"/>
				<stop  offset="1" style="stop-color:#FEB3B1"/>
			</linearGradient>
			<path style="fill:url(#SVGID_00000162312789703636075000000017639901118601333892_);" d="M1624.419,1241.598l-42.681,8.173
				c-9.192,1.76-15.839,9.801-15.839,19.16v51.277c0,10.774,8.734,19.508,19.508,19.508h42.681c10.774,0,19.508-8.734,19.508-19.508
				v-59.45C1647.596,1248.513,1636.446,1239.295,1624.419,1241.598z"/>
			
				<linearGradient id="SVGID_00000086652904999530944180000014106338721212568737_" gradientUnits="userSpaceOnUse" x1="953.4135" y1="-189.2534" x2="935.4113" y2="323.7982">
				<stop  offset="0" style="stop-color:#FF928E"/>
				<stop  offset="1" style="stop-color:#FEB3B1"/>
			</linearGradient>
			<path style="fill:url(#SVGID_00000086652904999530944180000014106338721212568737_);" d="M918.358,1260.454l-42.681,8.173
				c-9.192,1.76-15.839,9.801-15.839,19.16v51.277c0,10.774,8.734,19.508,19.508,19.508h42.681c10.774,0,19.508-8.734,19.508-19.508
				v-59.45C941.535,1267.369,930.385,1258.151,918.358,1260.454z"/>
			
				<linearGradient id="SVGID_00000033370016081800327890000011091530032537792152_" gradientUnits="userSpaceOnUse" x1="973.8616" y1="-188.5403" x2="955.8593" y2="324.5113">
				<stop  offset="0" style="stop-color:#FF928E"/>
				<stop  offset="1" style="stop-color:#FEB3B1"/>
			</linearGradient>
			<path style="fill:url(#SVGID_00000033370016081800327890000011091530032537792152_);" d="M958.166,709.434l-42.681,8.173
				c-9.192,1.76-15.839,9.801-15.839,19.16v51.277c0,10.774,8.734,19.508,19.508,19.508h42.681c10.774,0,19.508-8.734,19.508-19.508
				v-59.45C981.343,716.348,970.193,707.131,958.166,709.434z"/>
			
				<linearGradient id="SVGID_00000026125404297846222870000017633264142709291139_" gradientUnits="userSpaceOnUse" x1="1721.8599" y1="-162.2924" x2="1703.8577" y2="350.7589">
				<stop  offset="0" style="stop-color:#FF928E"/>
				<stop  offset="1" style="stop-color:#FEB3B1"/>
			</linearGradient>
			<path style="fill:url(#SVGID_00000026125404297846222870000017633264142709291139_);" d="M1697.749,975.516l-42.681,8.173
				c-9.192,1.76-15.839,9.801-15.839,19.16v51.277c0,10.774,8.734,19.508,19.508,19.508h42.681c10.774,0,19.508-8.734,19.508-19.508
				v-59.45C1720.925,982.431,1709.775,973.213,1697.749,975.516z"/>
		</g>
	</g>
	<g>
		<g>
			
				<linearGradient id="SVGID_00000067196578627024226280000013911057423604066987_" gradientUnits="userSpaceOnUse" x1="1220.9514" y1="1052.6604" x2="914.9195" y2="1892.7462">
				<stop  offset="0" style="stop-color:#FE7062"/>
				<stop  offset="1" style="stop-color:#FF928E"/>
			</linearGradient>
			<path style="fill:url(#SVGID_00000067196578627024226280000013911057423604066987_);" d="M1118.792,1062.622h-45.641V880.737
				c0-71.439,53.478-131.81,124.396-140.429l93.319-11.34c40.165-4.881,80.577,7.706,110.867,34.538
				c30.289,26.831,47.661,65.426,47.661,105.891v158.788h-45.641V869.396c0-27.408-11.767-53.552-32.284-71.726
				c-20.517-18.174-47.893-26.702-75.096-23.394l-93.32,11.341c-48.036,5.838-84.26,46.731-84.26,95.12V1062.622z"/>
			
				<linearGradient id="SVGID_00000158749657402857733140000005787168449420200580_" gradientUnits="userSpaceOnUse" x1="1303.1271" y1="1082.5955" x2="997.0953" y2="1922.6808">
				<stop  offset="0" style="stop-color:#FE7062"/>
				<stop  offset="1" style="stop-color:#FF928E"/>
			</linearGradient>
			<path style="fill:url(#SVGID_00000158749657402857733140000005787168449420200580_);" d="M1059.658,1021.786l400.091-22.166
				c16.25-0.9,29.92,12.034,29.92,28.308v316.956c0,15.658-12.693,28.352-28.352,28.352h-390.478
				c-15.298,0-27.838-12.137-28.337-27.428l-9.613-294.791C1032.388,1035.62,1044.275,1022.639,1059.658,1021.786z"/>
			
				<linearGradient id="SVGID_00000090996970034644142930000005250380075937965713_" gradientUnits="userSpaceOnUse" x1="1227.2894" y1="1291.7134" x2="1374.3041" y2="946.6785">
				<stop  offset="0" style="stop-color:#E1473D"/>
				<stop  offset="1" style="stop-color:#E9605A"/>
			</linearGradient>
			<path style="fill:url(#SVGID_00000090996970034644142930000005250380075937965713_);" d="M1326.497,1282.439l-24.216-69.62
				c-2.911-8.37-0.928-17.729,5.297-24.037c12.41-12.574,19.804-30.108,18.928-49.365c-1.545-33.961-29.287-61.495-63.258-62.8
				c-37.594-1.444-68.525,28.604-68.525,65.877c0,20.677,9.524,39.124,24.422,51.208c7.726,6.267,10.902,16.567,7.634,25.964
				l-21.834,62.773c-5.31,15.267,6.025,31.211,22.188,31.211h77.175C1320.472,1313.65,1331.807,1297.706,1326.497,1282.439z"/>
		</g>
	</g>
	<g>
		
			<linearGradient id="SVGID_00000087403811979185097200000011619619986337547936_" gradientUnits="userSpaceOnUse" x1="7015.4033" y1="3636.3977" x2="7087.4033" y2="3430.3984" gradientTransform="matrix(1 0 0 1 -7366.6167 0)">
			<stop  offset="0" style="stop-color:#09005D"/>
			<stop  offset="1" style="stop-color:#1A0F91"/>
		</linearGradient>
		<path style="fill:url(#SVGID_00000087403811979185097200000011619619986337547936_);" d="M483.632,1310.851
			c0.004-0.285-0.015-0.574-0.088-0.865c-4.314-17.1-25.722-27.752-25.722-27.752l-8.483,0.665
			c-4.878,15.072-4.251,24.316-3.467,28.433c0.022,0.116,0.057,0.225,0.087,0.337
			C452.957,1312.295,467.36,1312.703,483.632,1310.851z"/>
		
			<linearGradient id="SVGID_00000108305580365565061600000009874620589916171450_" gradientUnits="userSpaceOnUse" x1="7907.8257" y1="1252.0359" x2="7768.502" y2="1361.4335" gradientTransform="matrix(1 0 0 1 -7366.6167 0)">
			<stop  offset="0" style="stop-color:#53D8FF"/>
			<stop  offset="1" style="stop-color:#3840F7"/>
		</linearGradient>
		<path style="fill:url(#SVGID_00000108305580365565061600000009874620589916171450_);" d="M445.959,1311.669
			c0.378,1.375,1.393,2.446,2.692,2.719c9.955,2.094,25.776,0.409,32.419-0.46c1.466-0.192,2.537-1.547,2.561-3.077
			C467.36,1312.703,452.957,1312.295,445.959,1311.669z"/>
		
			<linearGradient id="SVGID_00000026854687712885940960000003754504206615345556_" gradientUnits="userSpaceOnUse" x1="490.8919" y1="931.0037" x2="446.8918" y2="994.0039">
			<stop  offset="0" style="stop-color:#FF928E"/>
			<stop  offset="1" style="stop-color:#FEB3B1"/>
		</linearGradient>
		<path style="fill:url(#SVGID_00000026854687712885940960000003754504206615345556_);" d="M412.365,1008.136
			c-5.239,5.592-12.954,10.425-18.382,13.438c8.107,10.021,19.077,20.056,33.599,29.879l4.156,9.327l13.317-15.961
			C445.055,1044.819,421.16,1032.928,412.365,1008.136z"/>
		
			<linearGradient id="SVGID_00000170277039793042278010000014966835413970499487_" gradientUnits="userSpaceOnUse" x1="7822.6025" y1="1253.6161" x2="7815.2871" y2="1317.4595" gradientTransform="matrix(1 0 0 1 -7366.6167 0)">
			<stop  offset="0" style="stop-color:#FF928E"/>
			<stop  offset="1" style="stop-color:#FEB3B1"/>
		</linearGradient>
		<path style="fill:url(#SVGID_00000170277039793042278010000014966835413970499487_);" d="M445.928,1270.264l3.593,17.296
			c0.263,1.268,1.237,2.217,2.417,2.328c1.444,0.135,3.499,0.215,5.567-0.089c1.853-0.272,3.144-2.156,2.816-4.177l-2.497-15.358
			H445.928z"/>
		
			<linearGradient id="SVGID_00000116933971009453045930000018050264544454072234_" gradientUnits="userSpaceOnUse" x1="7932.5752" y1="1283.5565" x2="7793.252" y2="1392.9536" gradientTransform="matrix(1 0 0 1 -7366.6167 0)">
			<stop  offset="0" style="stop-color:#53D8FF"/>
			<stop  offset="1" style="stop-color:#3840F7"/>
		</linearGradient>
		<path style="fill:url(#SVGID_00000116933971009453045930000018050264544454072234_);" d="M520.371,1311.496
			c-9.369-0.262-14.215-1.366-16.72-2.39c-0.006,0.932,0,1.88,0.03,2.862c0.032,1.049,0.81,1.887,1.765,1.881l51.443-0.332
			c1.641-0.01,2.601-1.915,1.89-3.42C552.033,1310.654,534.854,1311.901,520.371,1311.496z"/>
		
			<linearGradient id="SVGID_00000027593025854156102970000007625578707542203068_" gradientUnits="userSpaceOnUse" x1="7075.3491" y1="3657.3484" x2="7147.3491" y2="3451.3489" gradientTransform="matrix(1 0 0 1 -7366.6167 0)">
			<stop  offset="0" style="stop-color:#09005D"/>
			<stop  offset="1" style="stop-color:#1A0F91"/>
		</linearGradient>
		<path style="fill:url(#SVGID_00000027593025854156102970000007625578707542203068_);" d="M558.778,1310.097
			c-0.062-0.131-0.115-0.265-0.204-0.388c-4.543-6.348-16.114-18.988-38.978-24.471l-10.969-0.346c0,0-4.884,8.489-4.976,24.214
			c2.505,1.024,7.351,2.127,16.72,2.39C534.854,1311.901,552.033,1310.654,558.778,1310.097z"/>
		
			<linearGradient id="SVGID_00000049201355845516652150000000831347461308376218_" gradientUnits="userSpaceOnUse" x1="7882.1904" y1="1260.4441" x2="7874.8755" y2="1324.2869" gradientTransform="matrix(1 0 0 1 -7366.6167 0)">
			<stop  offset="0" style="stop-color:#FF928E"/>
			<stop  offset="1" style="stop-color:#FEB3B1"/>
		</linearGradient>
		<path style="fill:url(#SVGID_00000049201355845516652150000000831347461308376218_);" d="M506.593,1268.269
			c0.122,0.818,1.625,13.244,2.207,18.062c0.138,1.145,0.968,2.031,2.013,2.156c1.868,0.223,4.89,0.426,7.534-0.116
			c1.426-0.292,2.459-1.663,2.459-3.256v-19.506L506.593,1268.269z"/>
		
			<linearGradient id="SVGID_00000135674847765167776700000009563885956595710642_" gradientUnits="userSpaceOnUse" x1="428.0971" y1="1158.5348" x2="523.7771" y2="1158.5348">
			<stop  offset="0" style="stop-color:#E1473D"/>
			<stop  offset="1" style="stop-color:#E9605A"/>
		</linearGradient>
		<path style="fill:url(#SVGID_00000135674847765167776700000009563885956595710642_);" d="M497.793,1041.494
			c0,0,26.456,100.541,25.977,227.062c-0.009,2.307-1.628,4.297-3.886,4.773c-3.326,0.701-8.216,1.532-12.264,1.419
			c-2.161-0.06-3.967-1.663-4.331-3.794c-3.71-21.754-24.997-144.304-37.127-164.2c0,0-7.98,109.149-5.429,165.776
			c0.064,1.408-0.968,2.629-2.368,2.792c-2.124,0.245-5.522,0.432-9.846-0.028c-1.642-0.174-2.966-1.415-3.2-3.049
			c-2.642-18.411-17.851-127.999-17.204-206.943c0.037-4.452,11.773-23.808,11.773-23.808H497.793z"/>
		
			<linearGradient id="SVGID_00000055698434577341639630000004867357735539815560_" gradientUnits="userSpaceOnUse" x1="7895.5864" y1="813.8908" x2="7677.7529" y2="1291.9137" gradientTransform="matrix(1 0 0 1 -7366.6167 0)">
			<stop  offset="0" style="stop-color:#FE7062"/>
			<stop  offset="1" style="stop-color:#FF928E"/>
		</linearGradient>
		<path style="fill:url(#SVGID_00000055698434577341639630000004867357735539815560_);" d="M584.304,824.988
			c-11.613,21.615-30.89,43.672-62.254,49.584c-28.955,5.457-80.949,12.2-101.848,14.833c-6.285,0.792-12.033,3.89-16.175,8.684
			c-16.425,19.008-52.467,71.047-10.044,123.486c5.428-3.014,13.143-7.846,18.382-13.438c-4.693-13.23-5.078-30.138,4.758-50.871
			c0.336,1.643,0.752,3.27,1.257,4.871c13.557,42.95,14.281,78.69,14.25,86.927c-0.004,1.119,0.667,2.125,1.706,2.542
			c17.842,7.15,52.188,2.895,63.718,1.176c2.114-0.315,3.536-2.283,3.244-4.4c-5.659-40.995,23.381-108.433,31.052-125.323
			c1.122-2.471,3.099-4.456,5.572-5.574c43.862-19.842,62.93-50.386,70.66-77.901C601.895,830.604,591.53,826.684,584.304,824.988z"
			/>
		
			<linearGradient id="SVGID_00000057826927494878346040000001277700056832705705_" gradientUnits="userSpaceOnUse" x1="634.647" y1="755.7987" x2="573.647" y2="862.7986">
			<stop  offset="0" style="stop-color:#FF928E"/>
			<stop  offset="1" style="stop-color:#FEB3B1"/>
		</linearGradient>
		<path style="fill:url(#SVGID_00000057826927494878346040000001277700056832705705_);" d="M608.582,839.583
			c9.37-33.35,2.083-62.251,2.083-62.251h-9.993c0,0-3.419,23.553-16.368,47.657C591.53,826.684,601.895,830.604,608.582,839.583z"
			/>
		
			<linearGradient id="SVGID_00000174581423058625988260000015743065000405927314_" gradientUnits="userSpaceOnUse" x1="614.5349" y1="744.3329" x2="553.5349" y2="851.3329">
			<stop  offset="0" style="stop-color:#FF928E"/>
			<stop  offset="1" style="stop-color:#FEB3B1"/>
		</linearGradient>
		<path style="fill:url(#SVGID_00000174581423058625988260000015743065000405927314_);" d="M604.188,782.65
			c0,0-15.214-19.705-10.269-29.97c4.944-10.265,21.888-9.267,21.888-9.267l2.376,8.044c0.625,2.116,0.541,4.379-0.24,6.443
			l-9.362,24.75H604.188z"/>
		
			<linearGradient id="SVGID_00000116957830503690069430000006281345946918246034_" gradientUnits="userSpaceOnUse" x1="467.9015" y1="814.7115" x2="460.9016" y2="962.7117">
			<stop  offset="0" style="stop-color:#FF928E"/>
			<stop  offset="1" style="stop-color:#FEB3B1"/>
		</linearGradient>
		<path style="fill:url(#SVGID_00000116957830503690069430000006281345946918246034_);" d="M451.041,849.966l-3.439,35.133
			c0,0,19.764,5.953,34.139-4.19l-10.105-31.93L451.041,849.966z"/>
		<g>
			
				<linearGradient id="SVGID_00000100362097659485165620000007086344859721338242_" gradientUnits="userSpaceOnUse" x1="507.2631" y1="812.4307" x2="471.2632" y2="834.4307">
				<stop  offset="0" style="stop-color:#FF928E"/>
				<stop  offset="1" style="stop-color:#FEB3B1"/>
			</linearGradient>
			<path style="fill:url(#SVGID_00000100362097659485165620000007086344859721338242_);" d="M473.974,809.923
				c0.476,0.448,20.076,38.937,20.076,38.937l-22.215,10.724l-23.997-33.72C447.838,825.864,466.01,802.426,473.974,809.923z"/>
			
				<linearGradient id="SVGID_00000012447366346727507630000001384060579178948255_" gradientUnits="userSpaceOnUse" x1="473.8548" y1="718.813" x2="471.8547" y2="757.813">
				<stop  offset="0" style="stop-color:#E1473D"/>
				<stop  offset="1" style="stop-color:#E9605A"/>
			</linearGradient>
			<path style="fill:url(#SVGID_00000012447366346727507630000001384060579178948255_);" d="M457.667,826.798
				c-0.396,1.025-0.299,2.17,0.267,3.112l11.079,18.469c0.168,0.28,0.368,0.534,0.608,0.756c1.319,1.228,5.832,4.798,9.32-0.063
				c2.973-4.144,5.763-7.911,8.753-9.464c1.746-0.907,3.894-0.182,4.78,1.574c1.826,3.618,5.361,10.993,7.583,17.987
				c0.557,1.753-0.348,3.635-2.053,4.325c-4.498,1.822-13.388,5.118-21.278,6.207c-1.296,0.179-2.579-0.368-3.35-1.424
				c-3.394-4.65-12.96-17.644-16.225-20.896c-3.033-3.022-8.632-1.882-11.154-1.158c-0.957,0.275-1.977,0.143-2.831-0.371
				c-2.559-1.542-7.026-5.38-2.94-11.88c1.016-1.616,0.498-3.769-1.097-4.817c-2.857-1.88-5.958-5.408-3.004-11.122
				c2.99-5.784,8.331-6.303,11.968-5.859c1.609,0.197,3.243-0.647,3.861-2.146c0.274-0.667,0.817-1.235,1.828-1.44
				c1.906-0.387,3.158-2.13,2.784-4.039c-0.642-3.273-0.158-7.525,5.068-10.399c9.585-5.27,17.981,3.317,20.116,10.566
				c2.135,7.249-8.582,12.372-15.323,13.227C461.475,818.568,458.76,823.973,457.667,826.798z"/>
			
				<linearGradient id="SVGID_00000008854369844453445940000000981328462708594868_" gradientUnits="userSpaceOnUse" x1="3792.239" y1="4554.9648" x2="3831.9854" y2="4514.186" gradientTransform="matrix(0.6854 -0.7281 0.7281 0.6854 -5460.0977 544.7815)">
				<stop  offset="0" style="stop-color:#FF928E"/>
				<stop  offset="1" style="stop-color:#FEB3B1"/>
			</linearGradient>
			<path style="fill:url(#SVGID_00000008854369844453445940000000981328462708594868_);" d="M461.312,854.163
				c0,0-4.262-12.471-9.718-12.013c-5.456,0.458-9.75,5.893-2.988,12.003C457.016,861.752,461.312,854.163,461.312,854.163z"/>
		</g>
		
			<linearGradient id="SVGID_00000151508833439129141580000007747213856457818807_" gradientUnits="userSpaceOnUse" x1="346.4739" y1="985.1665" x2="270.474" y2="1045.1665">
			<stop  offset="0" style="stop-color:#FE7062"/>
			<stop  offset="1" style="stop-color:#FF928E"/>
		</linearGradient>
		<path style="fill:url(#SVGID_00000151508833439129141580000007747213856457818807_);" d="M415.324,954.053
			c-7.191-19.681-4.582-43.445-4.555-43.683l1.982,0.227c-0.026,0.233-2.58,23.542,4.448,42.771L415.324,954.053z"/>
		
			<linearGradient id="SVGID_00000051347813329766622850000003042829916430230424_" gradientUnits="userSpaceOnUse" x1="7837.8931" y1="1065.988" x2="7818.2744" y2="1100.9022" gradientTransform="matrix(1 0 0 1 -7366.6167 0)">
			<stop  offset="0" style="stop-color:#FE7062"/>
			<stop  offset="1" style="stop-color:#FF928E"/>
		</linearGradient>
		<path style="fill:url(#SVGID_00000051347813329766622850000003042829916430230424_);" d="M465.191,1104.192
			c-0.443,0-0.848-0.298-0.964-0.747c-2.194-8.462-18.622-17.761-18.788-17.854c-0.48-0.269-0.652-0.877-0.382-1.358
			c0.27-0.48,0.875-0.652,1.358-0.382c0.706,0.396,17.336,9.81,19.742,19.092c0.138,0.534-0.182,1.078-0.715,1.216
			C465.359,1104.181,465.274,1104.192,465.191,1104.192z"/>
	</g>
	<g>
		<path style="fill:#7D97F4;" d="M2287.913,480.237l-10.365-2.362c-2.803-0.639-5.088-2.626-6.172-5.288
			c-2.728-6.699-6.193-12.987-10.285-18.777c-1.662-2.351-2.107-5.35-1.132-8.059l3.602-10.013c1.518-4.22,0.192-8.939-3.303-11.75
			l-10.434-8.392c-3.495-2.811-8.389-3.095-12.186-0.708l-9.008,5.665c-2.437,1.533-5.462,1.741-8.115,0.621
			c-6.533-2.755-13.418-4.792-20.546-6.02c-2.833-0.488-5.264-2.294-6.489-4.895l-4.529-9.618c-1.91-4.058-6.185-6.456-10.644-5.973
			l-13.312,1.444c-4.459,0.483-8.12,3.743-9.117,8.116l-2.362,10.365c-0.638,2.803-2.626,5.088-5.288,6.172
			c-6.699,2.727-12.987,6.193-18.778,10.285c-2.352,1.662-5.35,2.107-8.059,1.132l-10.013-3.602
			c-4.22-1.518-8.939-0.192-11.75,3.303l-8.392,10.434c-2.811,3.495-3.095,8.388-0.708,12.185l5.665,9.008
			c1.533,2.438,1.74,5.462,0.622,8.115c-2.756,6.533-4.793,13.418-6.021,20.546c-0.488,2.833-2.294,5.264-4.895,6.488l-9.618,4.529
			c-4.057,1.91-6.456,6.185-5.972,10.644l1.444,13.313c0.483,4.459,3.742,8.12,8.115,9.116l10.365,2.362
			c2.803,0.639,5.088,2.625,6.172,5.288c2.728,6.699,6.193,12.987,10.285,18.778c1.662,2.351,2.107,5.35,1.132,8.059l-3.602,10.013
			c-1.518,4.22-0.191,8.939,3.304,11.751l10.434,8.392c3.495,2.811,8.388,3.095,12.185,0.708l9.008-5.665
			c2.438-1.533,5.462-1.741,8.115-0.622c6.532,2.756,13.418,4.793,20.546,6.021c2.833,0.488,5.264,2.294,6.488,4.895l4.529,9.617
			c1.911,4.058,6.186,6.457,10.644,5.973l13.312-1.444c4.459-0.484,8.12-3.743,9.117-8.116l2.362-10.365
			c0.639-2.803,2.626-5.088,5.288-6.172c6.699-2.728,12.987-6.193,18.778-10.285c2.352-1.662,5.35-2.107,8.059-1.132l10.013,3.602
			c4.22,1.518,8.939,0.191,11.751-3.303l8.392-10.434c2.811-3.495,3.095-8.388,0.708-12.185l-5.665-9.008
			c-1.533-2.438-1.741-5.462-0.622-8.115c2.756-6.533,4.793-13.418,6.021-20.546c0.488-2.833,2.294-5.264,4.895-6.488l9.617-4.529
			c4.058-1.911,6.457-6.186,5.973-10.644l-1.443-13.312C2295.545,484.895,2292.286,481.234,2287.913,480.237z M2200.057,584.474
			c-42.098,8.928-83.462-17.962-92.39-60.06c-8.928-42.098,17.962-83.462,60.06-92.39c42.098-8.928,83.462,17.962,92.39,60.06
			S2242.155,575.546,2200.057,584.474z M2233.596,507.319c0,27.898-22.616,50.514-50.514,50.514
			c-27.898,0-50.514-22.616-50.514-50.514c0-27.898,22.616-50.514,50.514-50.514C2210.98,456.805,2233.596,479.42,2233.596,507.319z
			"/>
		<g>
			<path style="fill:#7D97F4;" d="M2311.634,673.34l-7.527-1.715c-2.036-0.464-3.695-1.907-4.482-3.84
				c-1.981-4.865-4.498-9.432-7.469-13.637c-1.207-1.708-1.53-3.885-0.822-5.853l2.616-7.272c1.102-3.065,0.139-6.492-2.399-8.533
				l-7.577-6.095c-2.539-2.042-6.092-2.248-8.85-0.514l-6.542,4.114c-1.77,1.113-3.966,1.264-5.893,0.451
				c-4.744-2.001-9.744-3.48-14.921-4.372c-2.057-0.354-3.823-1.666-4.712-3.555l-3.289-6.985c-1.387-2.947-4.492-4.689-7.73-4.337
				l-9.668,1.048c-3.238,0.351-5.897,2.718-6.621,5.894l-1.715,7.527c-0.464,2.036-1.907,3.695-3.84,4.482
				c-4.865,1.981-9.432,4.498-13.637,7.469c-1.708,1.207-3.885,1.53-5.853,0.822l-7.272-2.616c-3.065-1.103-6.492-0.139-8.533,2.399
				l-6.094,7.577c-2.042,2.538-2.248,6.092-0.514,8.849l4.114,6.542c1.113,1.77,1.264,3.966,0.452,5.893
				c-2.001,4.745-3.481,9.745-4.372,14.921c-0.354,2.058-1.666,3.823-3.555,4.712l-6.985,3.289
				c-2.946,1.387-4.688,4.492-4.337,7.729l1.048,9.668c0.352,3.238,2.718,5.897,5.894,6.62l7.527,1.715
				c2.036,0.464,3.695,1.907,4.482,3.84c1.981,4.865,4.498,9.432,7.469,13.637c1.207,1.708,1.53,3.885,0.823,5.853l-2.616,7.272
				c-1.103,3.065-0.139,6.492,2.399,8.534l7.577,6.094c2.538,2.042,6.092,2.248,8.849,0.514l6.542-4.114
				c1.77-1.113,3.966-1.264,5.894-0.452c4.744,2.001,9.744,3.481,14.921,4.372c2.057,0.354,3.823,1.666,4.712,3.555l3.289,6.984
				c1.388,2.947,4.492,4.689,7.73,4.338l9.667-1.048c3.238-0.351,5.897-2.718,6.621-5.894l1.715-7.527
				c0.464-2.036,1.907-3.695,3.84-4.482c4.865-1.981,9.431-4.498,13.637-7.469c1.708-1.207,3.885-1.53,5.853-0.822l7.272,2.616
				c3.065,1.103,6.492,0.139,8.533-2.399l6.094-7.577c2.042-2.538,2.248-6.092,0.514-8.849l-4.114-6.542
				c-1.113-1.77-1.264-3.966-0.451-5.893c2.001-4.744,3.481-9.745,4.372-14.921c0.354-2.058,1.666-3.823,3.555-4.712l6.984-3.289
				c2.947-1.388,4.689-4.492,4.338-7.73l-1.048-9.667C2317.177,676.723,2314.81,674.064,2311.634,673.34z M2247.831,749.039
				c-30.573,6.483-60.612-13.044-67.096-43.617c-6.483-30.572,13.045-60.612,43.617-67.096
				c30.573-6.484,60.612,13.044,67.096,43.617C2297.931,712.516,2278.404,742.555,2247.831,749.039z M2276.602,691.323
				c0,22.374-18.137,40.511-40.511,40.511c-22.373,0-40.51-18.137-40.51-40.511c0-22.373,18.137-40.51,40.51-40.51
				C2258.465,650.813,2276.602,668.95,2276.602,691.323z"/>
		</g>
		<g>
			<path style="fill:#7D97F4;" d="M2128.559,723.2l-6.469-7.727c-1.749-2.09-2.334-4.9-1.625-7.531
				c1.783-6.621,2.774-13.354,3.007-20.072c0.094-2.728,1.478-5.247,3.768-6.733l8.462-5.492c3.566-2.315,5.272-6.637,4.246-10.763
				l-3.062-12.319c-1.026-4.127-4.557-7.148-8.792-7.523l-10.048-0.891c-2.719-0.241-5.121-1.819-6.481-4.185
				c-3.351-5.827-7.379-11.313-12.054-16.328c-1.858-1.993-2.657-4.75-2.09-7.416l2.098-9.857c0.885-4.158-0.965-8.421-4.608-10.613
				l-10.876-6.546c-3.643-2.192-8.275-1.832-11.536,0.897l-7.728,6.469c-2.09,1.749-4.9,2.334-7.531,1.625
				c-6.621-1.784-13.354-2.775-20.072-3.007c-2.728-0.095-5.247-1.478-6.732-3.768l-5.491-8.462
				c-2.315-3.567-6.637-5.272-10.764-4.246l-12.318,3.062c-4.126,1.026-7.147,4.556-7.523,8.791l-0.891,10.048
				c-0.241,2.719-1.819,5.12-4.185,6.481c-5.827,3.35-11.313,7.379-16.328,12.054c-1.994,1.858-4.751,2.657-7.416,2.09l-9.857-2.098
				c-4.158-0.885-8.42,0.965-10.613,4.608l-6.546,10.876c-2.193,3.643-1.833,8.275,0.896,11.535l6.469,7.727
				c1.749,2.09,2.334,4.9,1.625,7.531c-1.784,6.621-2.774,13.354-3.007,20.072c-0.094,2.728-1.478,5.247-3.768,6.732l-8.462,5.492
				c-3.566,2.315-5.272,6.637-4.246,10.764l3.062,12.318c1.026,4.126,4.556,7.147,8.791,7.523l10.048,0.891
				c2.719,0.241,5.121,1.819,6.482,4.185c3.35,5.827,7.379,11.313,12.054,16.328c1.858,1.993,2.657,4.751,2.09,7.416l-2.098,9.856
				c-0.885,4.159,0.966,8.421,4.608,10.614l10.875,6.546c3.643,2.192,8.275,1.832,11.536-0.897l7.728-6.468
				c2.09-1.749,4.9-2.334,7.531-1.625c6.621,1.783,13.354,2.774,20.072,3.007c2.728,0.094,5.247,1.478,6.732,3.768l5.492,8.462
				c2.314,3.567,6.637,5.272,10.764,4.247l12.318-3.062c4.126-1.025,7.147-4.556,7.523-8.791l0.891-10.048
				c0.241-2.719,1.819-5.121,4.185-6.481c5.827-3.351,11.313-7.379,16.328-12.055c1.994-1.858,4.75-2.657,7.416-2.089l9.856,2.098
				c4.159,0.885,8.421-0.965,10.614-4.608l6.545-10.875C2131.648,731.093,2131.289,726.46,2128.559,723.2z M2002.462,751.484
				c-36.895-17.407-52.693-61.428-35.285-98.323c17.407-36.895,61.428-52.693,98.323-35.285
				c36.895,17.407,52.692,61.428,35.285,98.323C2083.378,753.093,2039.358,768.891,2002.462,751.484z"/>
		</g>
	</g>
	<g>
		<path style="fill:#7D97F4;" d="M652.412,1534.563H272.745c-12.107,0-21.921-5.376-21.921-12.008v-200.801
			c0-6.619,9.779-11.99,21.862-12.008l382.703-0.562c12.175-0.018,22.045,5.402,21.98,12.071l-3.036,201.363
			C674.268,1529.226,664.473,1534.563,652.412,1534.563z"/>
		<path style="fill:#91B3FA;" d="M633.807,1324.554l-339.483,1.145c-12.271,0.041-22.163,5.518-22.106,12.24l2.369,168.885
			c0.056,6.62,9.753,12.005,21.837,12.125l329.85,3.296c12.319,0.123,22.474-5.263,22.647-12.011l7.264-173.326
			C656.36,1330.083,646.267,1324.512,633.807,1324.554z"/>
		<path style="fill:#BDD0FB;" d="M620.004,1340.216v1.282c0,2.013-2.979,3.645-6.654,3.645H351.78c-3.675,0-6.654-1.632-6.654-3.645
			v-1.282c0-2.013,2.979-3.645,6.654-3.645h261.57C617.025,1336.571,620.004,1338.203,620.004,1340.216z"/>
		<path style="fill:#BDD0FB;" d="M590.819,1356.342L590.819,1356.342c-0.189,1.908-3.035,3.412-6.523,3.447l-228.756,2.284
			c-3.722,0.037-6.775-1.605-6.775-3.644v-0.298c0-1.991,2.915-3.613,6.549-3.644l228.756-1.986
			C587.927,1352.466,591.028,1354.231,590.819,1356.342z"/>
		<g>
			<path style="fill:#BDD0FB;" d="M614.181,1515.156c-0.077,0-0.153-0.001-0.23-0.001l-309.405-2.034
				c-7.008-0.046-13.289-2.26-16.804-5.923c-2.032-2.118-3.058-4.618-2.968-7.233l7.968-119.362
				c0.245-7.133,8.947-12.509,20.336-12.402l308.866,3.293c6.957,0.075,13.192,2.292,16.678,5.932
				c2.02,2.109,3.043,4.601,2.958,7.203c-0.002,0.043-0.003,0.085-0.006,0.127l-7.422,117.969
				C633.925,1509.782,625.353,1515.156,614.181,1515.156z M312.704,1376.58c-7.434,0-11.548,3.138-11.593,4.447l-7.968,119.363
				c-0.008,0.279,0.448,0.801,0.645,1.005c1.574,1.64,5.528,3.311,10.813,3.345l309.405,2.034c0.058,0,0.118,0.001,0.175,0.001
				c7.444,0,11.559-3.146,11.601-4.449l7.422-118.002c-0.01-0.406-0.445-0.903-0.635-1.102c-1.557-1.627-5.474-3.293-10.715-3.348
				l-308.866-3.293C312.893,1376.581,312.798,1376.58,312.704,1376.58z M637.392,1384.494h0.021H637.392z"/>
		</g>
		<path style="fill:#BDD0FB;" d="M633.385,1399.585H296.42c-2.314,0-4.19-1.876-4.19-4.19c0-2.314,1.876-4.19,4.19-4.19h336.965
			c2.314,0,4.19,1.876,4.19,4.19C637.575,1397.709,635.699,1399.585,633.385,1399.585z"/>
	</g>
	<g>
		<path style="fill:#7D97F4;" d="M907.843,1534.563H490.708c-13.302,0-24.085-3.598-24.085-8.037v-134.4
			c0-4.43,10.744-8.025,24.02-8.037l420.471-0.376c13.377-0.012,24.22,3.616,24.149,8.08l-3.336,134.776
			C931.856,1530.991,921.094,1534.563,907.843,1534.563z"/>
		<path style="fill:#BDD0FB;" d="M887.402,1394l-372.986,0.766c-13.482,0.028-24.35,3.694-24.287,8.193l2.602,113.038
			c0.062,4.431,10.715,8.035,23.992,8.116l362.402,2.206c13.535,0.082,24.692-3.522,24.882-8.039l7.981-116.01
			C912.18,1397.701,901.091,1393.972,887.402,1394z"/>
		
			<linearGradient id="SVGID_00000080925389553048352530000012963539964149052053_" gradientUnits="userSpaceOnUse" x1="570.2312" y1="1404.9125" x2="872.2364" y2="1404.9125">
			<stop  offset="0" style="stop-color:#DAE3FE"/>
			<stop  offset="1" style="stop-color:#E9EFFD"/>
		</linearGradient>
		<path style="fill:url(#SVGID_00000080925389553048352530000012963539964149052053_);" d="M872.236,1404.483v0.858
			c0,1.347-3.273,2.44-7.311,2.44H577.542c-4.038,0-7.311-1.092-7.311-2.44v-0.858c0-1.347,3.273-2.439,7.311-2.439h287.383
			C868.963,1402.044,872.236,1403.136,872.236,1404.483z"/>
		
			<linearGradient id="SVGID_00000084490949068445052570000008993750695116286875_" gradientUnits="userSpaceOnUse" x1="574.2291" y1="1415.9084" x2="840.1826" y2="1415.9084">
			<stop  offset="0" style="stop-color:#DAE3FE"/>
			<stop  offset="1" style="stop-color:#E9EFFD"/>
		</linearGradient>
		<path style="fill:url(#SVGID_00000084490949068445052570000008993750695116286875_);" d="M840.172,1415.276L840.172,1415.276
			c-0.207,1.277-3.335,2.284-7.167,2.307l-251.331,1.528c-4.089,0.025-7.444-1.074-7.444-2.439v-0.199
			c0-1.332,3.203-2.418,7.195-2.439l251.331-1.329C836.994,1412.682,840.401,1413.864,840.172,1415.276z"/>
		
			<linearGradient id="SVGID_00000116227201418168241150000004433752283193505721_" gradientUnits="userSpaceOnUse" x1="504.3315" y1="1472.3922" x2="895.5341" y2="1472.3922">
			<stop  offset="0" style="stop-color:#DAE3FE"/>
			<stop  offset="1" style="stop-color:#E9EFFD"/>
		</linearGradient>
		<path style="fill:url(#SVGID_00000116227201418168241150000004433752283193505721_);" d="M865.828,1522.959
			c-0.077,0-0.152,0-0.23,0l-339.938-1.362c-3.376-0.013-14.753-0.44-19.397-5.375c-1.718-1.826-1.993-3.703-1.921-4.957
			c0.004-0.073,0.01-0.145,0.017-0.218l8.738-79.718c0.546-7.11,12.118-9.607,21.902-9.501l339.346,2.204
			c3.349,0.021,14.639,0.474,19.253,5.372c1.714,1.818,1.994,3.689,1.927,4.937c-0.003,0.07-0.009,0.139-0.016,0.209l-8.155,78.958
			C886.989,1520.438,875.583,1522.959,865.828,1522.959z M512.815,1510.818c1.422,0.865,5.677,2.37,12.878,2.399l339.939,1.362
			c0.067,0,0.134,0,0.201,0c7.105,0,11.899-1.547,13.251-2.516l7.973-77.246c-1.406-0.858-5.624-2.358-12.767-2.404l-339.346-2.203
			c-7.255-0.052-12.192,1.527-13.568,2.513L512.815,1510.818z M879.024,1512.634c-0.01,0.07-0.018,0.143-0.023,0.221
			L879.024,1512.634z M891.341,1434.119h0.02H891.341z M521.455,1431.938c0,0.003,0,0.005,0,0.007
			C521.455,1431.943,521.455,1431.941,521.455,1431.938z"/>
		
			<linearGradient id="SVGID_00000001661049508816750290000014111464209981553553_" gradientUnits="userSpaceOnUse" x1="512.5288" y1="1441.4154" x2="891.1274" y2="1441.4154">
			<stop  offset="0" style="stop-color:#DAE3FE"/>
			<stop  offset="1" style="stop-color:#E9EFFD"/>
		</linearGradient>
		<path style="fill:url(#SVGID_00000001661049508816750290000014111464209981553553_);" d="M886.937,1445.606H516.719
			c-2.314,0-4.19-1.876-4.19-4.19c0-2.314,1.876-4.19,4.19-4.19h370.218c2.314,0,4.19,1.876,4.19,4.19
			C891.127,1443.729,889.251,1445.606,886.937,1445.606z"/>
	</g>
	<g>
		<g>
			
				<linearGradient id="SVGID_00000119098269208585733080000011775958908641688208_" gradientUnits="userSpaceOnUse" x1="2248.4429" y1="276.1496" x2="2187.8362" y2="401.0732" gradientTransform="matrix(0.987 0.1608 -0.1608 0.987 -46.6743 443.2292)">
				<stop  offset="0" style="stop-color:#09005D"/>
				<stop  offset="1" style="stop-color:#1A0F91"/>
			</linearGradient>
			<path style="fill:url(#SVGID_00000119098269208585733080000011775958908641688208_);" d="M2011.714,1182.463
				c-0.31,0.586-19.8,14.928-19.8,14.928s4.304,30.792,21.782,42.951c19.216,13.368,46.354-11.011,46.354-11.011
				s21.597,5.134,33.083-39.823c2.635-10.314-12.575-11.186-30.933-9.286C2038.528,1182.671,2011.714,1182.463,2011.714,1182.463z"
				/>
			
				<linearGradient id="SVGID_00000052074032109959472800000002556044324786964619_" gradientUnits="userSpaceOnUse" x1="2041.3378" y1="1357.9135" x2="2041.3378" y2="1627.0126">
				<stop  offset="0" style="stop-color:#FE7062"/>
				<stop  offset="1" style="stop-color:#FF928E"/>
			</linearGradient>
			<path style="fill:url(#SVGID_00000052074032109959472800000002556044324786964619_);" d="M1975.284,1287.516
				c7.625-5.242,16.055-9.195,24.992-11.627c3.357-0.914,21.483,4.354,32.687,4.097c15.381-0.353,31.036-7.353,43.714-4.193
				c12.594,3.138,22.901,7.237,28.852,11.47c17.814,12.67,28.273,36.295,34.646,59.696c-12.069,12.389-27.257,17.895-27.257,17.895
				l-2.807,113.747l-67.26,34.413l-76.77-38.543l2.75-111.158c0,0-24.378-11.353-26.167-15.483
				C1940.876,1343.7,1953.775,1302.304,1975.284,1287.516z"/>
			
				<linearGradient id="SVGID_00000087394100590812163520000002675771326200349340_" gradientUnits="userSpaceOnUse" x1="1927.1088" y1="1322.9818" x2="2054.9229" y2="1631.7274">
				<stop  offset="0" style="stop-color:#FF928E"/>
				<stop  offset="1" style="stop-color:#FEB3B1"/>
			</linearGradient>
			<path style="fill:url(#SVGID_00000087394100590812163520000002675771326200349340_);" d="M1943.8,1347.333
				c0,0-32.668,90.57,41.827,127.793c15.469-2.055,9.519-27.743,9.519-27.743s-32.369-7.163-22.648-82.716
				C1963.549,1357.304,1943.8,1347.333,1943.8,1347.333z"/>
			
				<linearGradient id="SVGID_00000062909877020815650380000013504729597733961866_" gradientUnits="userSpaceOnUse" x1="-7596.0513" y1="1227.425" x2="-7468.2368" y2="1536.1707" gradientTransform="matrix(-1 0 0 1 -5403.0742 0)">
				<stop  offset="0" style="stop-color:#FF928E"/>
				<stop  offset="1" style="stop-color:#FEB3B1"/>
			</linearGradient>
			<path style="fill:url(#SVGID_00000062909877020815650380000013504729597733961866_);" d="M2138.605,1347.333
				c0,0,22.479,94.542-41.827,127.793c-15.468-2.055-9.519-27.743-9.519-27.743s26.087-12.848,22.647-82.716
				C2118.856,1357.304,2138.605,1347.333,2138.605,1347.333z"/>
			
				<linearGradient id="SVGID_00000120521205274564234650000013804331438475091133_" gradientUnits="userSpaceOnUse" x1="2097.5466" y1="1364.9802" x2="2015.5465" y2="1458.3136">
				<stop  offset="0" style="stop-color:#09005D"/>
				<stop  offset="1" style="stop-color:#1A0F91"/>
			</linearGradient>
			<path style="fill:url(#SVGID_00000120521205274564234650000013804331438475091133_);" d="M2104.356,1481.487h-130.826
				c-4.584,0-8.334-3.75-8.334-8.334v-82.94c0-4.584,3.75-8.334,8.334-8.334h130.826c4.584,0,8.334,3.751,8.334,8.334v82.94
				C2112.691,1477.737,2108.94,1481.487,2104.356,1481.487z"/>
			<g>
				
					<linearGradient id="SVGID_00000062879788421681147320000002794593683993357494_" gradientUnits="userSpaceOnUse" x1="2269.283" y1="1582.8524" x2="1928.6161" y2="1415.5188">
					<stop  offset="0" style="stop-color:#4042E2"/>
					<stop  offset="1" style="stop-color:#4F52FF"/>
				</linearGradient>
				<path style="fill:url(#SVGID_00000062879788421681147320000002794593683993357494_);" d="M2177.384,1511.018
					c-16.88-3.875-55.892-1.792-55.892-1.792l-1.587,4.297l-2.628,21.359c0,0,37.153,6.697,55.466,6.681
					c1.868-0.002,3.577-0.282,5.138-0.768c0.558-0.501,1.104-1.021,1.62-1.584
					C2187.271,1530.725,2185.028,1518.26,2177.384,1511.018z"/>
				
					<linearGradient id="SVGID_00000150069237741244903430000002283180974839867836_" gradientUnits="userSpaceOnUse" x1="2163.4556" y1="1398.8577" x2="2089.7283" y2="1598.5562">
					<stop  offset="0" style="stop-color:#FF928E"/>
					<stop  offset="1" style="stop-color:#FEB3B1"/>
				</linearGradient>
				<path style="fill:url(#SVGID_00000150069237741244903430000002283180974839867836_);" d="M2110.282,1508.023l6.606,0.282
					c3.549,0.152,6.894,1.881,9.281,4.799c2.386,2.917,3.614,6.777,3.405,10.71c-0.167,3.135-1.453,6.068-3.575,8.148
					c-2.122,2.08-4.904,3.137-7.73,2.936l-10.108-0.719L2110.282,1508.023z"/>
			</g>
			<g>
				
					<linearGradient id="SVGID_00000161601992801890656480000013575976818527913903_" gradientUnits="userSpaceOnUse" x1="1885.9579" y1="1541.6792" x2="2055.2913" y2="1436.3456">
					<stop  offset="0" style="stop-color:#4042E2"/>
					<stop  offset="1" style="stop-color:#4F52FF"/>
				</linearGradient>
				<path style="fill:url(#SVGID_00000161601992801890656480000013575976818527913903_);" d="M1888.15,1508.963
					c16.97-3.355,55.916-0.076,55.916-0.076l1.479,4.344l2.094,21.432c0,0-37.306,5.554-55.612,4.976
					c-1.868-0.059-3.569-0.392-5.117-0.925c-0.546-0.518-1.078-1.054-1.58-1.633
					C1877.775,1528.36,1880.329,1515.968,1888.15,1508.963z"/>
				
					<linearGradient id="SVGID_00000160899996316474191210000018356700143500220038_" gradientUnits="userSpaceOnUse" x1="2015.7416" y1="1338.6786" x2="1941.9757" y2="1538.4818">
					<stop  offset="0" style="stop-color:#FF928E"/>
					<stop  offset="1" style="stop-color:#FEB3B1"/>
				</linearGradient>
				<path style="fill:url(#SVGID_00000160899996316474191210000018356700143500220038_);" d="M1955.301,1508.029l-6.611,0.079
					c-3.551,0.043-6.938,1.669-9.397,4.512c-2.458,2.843-3.781,6.664-3.671,10.602c0.088,3.139,1.301,6.11,3.37,8.255
					c2.069,2.145,4.823,3.286,7.654,3.172l10.122-0.409L1955.301,1508.029z"/>
			</g>
			
				<linearGradient id="SVGID_00000170251208059718691080000007327146392203260332_" gradientUnits="userSpaceOnUse" x1="2072.9617" y1="1485.0602" x2="2244.9614" y2="1336.3937">
				<stop  offset="0" style="stop-color:#4042E2"/>
				<stop  offset="1" style="stop-color:#4F52FF"/>
			</linearGradient>
			<path style="fill:url(#SVGID_00000170251208059718691080000007327146392203260332_);" d="M2182.104,1444.058
				c-7.655-17.618-26.377-20.478-42.312-12.24c-0.277,0.364-101.196,52.086-190.194,74.754c2.548,8.168,3.858,16.859,4.144,25.402
				c0.052,1.903,0.02,3.78-0.092,5.633c68.249-3.505,142.319-26.266,205.967-46.269
				C2179.354,1484.973,2190.589,1463.585,2182.104,1444.058z"/>
			
				<linearGradient id="SVGID_00000017482077644374945850000012641380429734478783_" gradientUnits="userSpaceOnUse" x1="2002.9907" y1="1331.2754" x2="2004.3241" y2="1411.9423">
				<stop  offset="0" style="stop-color:#4042E2"/>
				<stop  offset="1" style="stop-color:#4F52FF"/>
			</linearGradient>
			<path style="fill:url(#SVGID_00000017482077644374945850000012641380429734478783_);" d="M2110.767,1533.313
				c-0.267-9.847,1.648-19.013,5.743-27.5c0.117-0.389,0.257-0.762,0.381-1.146c-5.082-1.574-11.648-3.707-20.273-6.632
				c-63.198-21.628-111.41-43.466-157.423-68.605c-17.876-9.766-38.2-3.221-43.922,17.93c-5.108,18.882,6.109,35.002,23.134,40.667
				c50.935,16.949,24.415,12.241,41.05,17.595c44.675,13.815,100.268,26.398,151.416,29.834
				C2110.835,1534.742,2110.791,1534.026,2110.767,1533.313z"/>
			
				<linearGradient id="SVGID_00000043436574860149564080000015992265871208258946_" gradientUnits="userSpaceOnUse" x1="2039.2344" y1="1248.2482" x2="2035.901" y2="1369.5814">
				<stop  offset="0" style="stop-color:#FF928E"/>
				<stop  offset="1" style="stop-color:#FEB3B1"/>
			</linearGradient>
			<path style="fill:url(#SVGID_00000043436574860149564080000015992265871208258946_);" d="M2000.276,1275.889
				c0,0,6.797,29.454,39.795,28.842c33.61-0.612,36.606-28.939,36.606-28.939l-21.955-4.698l-1.835-24.463l-33.025,2.447
				l-0.611,23.24L2000.276,1275.889z"/>
			
				<linearGradient id="SVGID_00000000224229520912895390000008835183507824395670_" gradientUnits="userSpaceOnUse" x1="2046.2954" y1="1180.9978" x2="2040.9622" y2="1269.6644">
				<stop  offset="0" style="stop-color:#FF928E"/>
				<stop  offset="1" style="stop-color:#FEB3B1"/>
			</linearGradient>
			<path style="fill:url(#SVGID_00000000224229520912895390000008835183507824395670_);" d="M2024.499,1177.32
				c0,0-37.846,73.311,7.048,91.097c31.667,12.545,51.521-48.684,45.599-65.268c-9.157-25.642-15.187-22.599-15.187-22.599
				L2024.499,1177.32z"/>
			
				<linearGradient id="SVGID_00000173850840532601707230000003301016676031350941_" gradientUnits="userSpaceOnUse" x1="2119.6851" y1="1050.899" x2="2092.3518" y2="1098.8989">
				<stop  offset="0" style="stop-color:#09005D"/>
				<stop  offset="1" style="stop-color:#1A0F91"/>
			</linearGradient>
			<path style="fill:url(#SVGID_00000173850840532601707230000003301016676031350941_);" d="M2086.253,1170.649
				c18.697,5.139,2.718,45.689-25.431,36.099c-28.149-9.589-39.211-9.449-43.597-1.719c-4.386,7.73-5.329,35.179-14.846,21.611
				c-10.435-14.875-16.253-44.731-3.459-54.355c11.434-8.601,14.102-21.938,27.816-21.475c18.203,0.613,32.28-7.456,40.497-1.636
				C2076.669,1155.856,2072.496,1166.868,2086.253,1170.649z"/>
			
				<linearGradient id="SVGID_00000084531973123002083990000007271158594067190927_" gradientUnits="userSpaceOnUse" x1="2013.5634" y1="1179.0288" x2="2008.23" y2="1267.6954">
				<stop  offset="0" style="stop-color:#FF928E"/>
				<stop  offset="1" style="stop-color:#FEB3B1"/>
			</linearGradient>
			<path style="fill:url(#SVGID_00000084531973123002083990000007271158594067190927_);" d="M2015.494,1211.333
				c0,0-8.072-8.685-9.364,1.783c-1.292,10.468,2.856,23.948,7.715,16.559C2018.705,1222.285,2015.494,1211.333,2015.494,1211.333z"
				/>
		</g>
		
			<linearGradient id="SVGID_00000082349042390083469950000008075913940325798279_" gradientUnits="userSpaceOnUse" x1="2029.181" y1="1409.9882" x2="2047.7717" y2="1409.9882">
			<stop  offset="0" style="stop-color:#4042E2"/>
			<stop  offset="1" style="stop-color:#4F52FF"/>
		</linearGradient>
		<path style="fill:url(#SVGID_00000082349042390083469950000008075913940325798279_);" d="M2047.643,1408.854
			c0.782,5.285-2.049,10.081-7.334,10.864c-5.285,0.782-10.203-2.868-10.984-8.153c-0.782-5.284,1.637-10.533,6.921-11.315
			C2041.531,1399.468,2046.861,1403.569,2047.643,1408.854z"/>
	</g>
</g>
</svg>
